<mxfile host="Electron" modified="2024-03-05T14:08:21.795Z" agent="Mozilla/5.0 (Windows NT 10.0; Win64; x64) AppleWebKit/537.36 (KHTML, like Gecko) draw.io/23.1.5 Chrome/120.0.6099.109 Electron/28.1.0 Safari/537.36" etag="HMCXO9H6cqc0yAZ_QA4C" version="23.1.5" type="device">
  <diagram name="Страница — 1" id="Ad3EWiHHeQSF2YOen9gy">
    <mxGraphModel dx="1548" dy="902" grid="1" gridSize="10" guides="1" tooltips="1" connect="1" arrows="1" fold="1" page="1" pageScale="1" pageWidth="3300" pageHeight="4681" background="#F8FFEB" math="0" shadow="0">
      <root>
        <mxCell id="0" />
        <mxCell id="1" parent="0" />
        <mxCell id="lWZUqKvUinrnLsrHvL62-11" style="edgeStyle=orthogonalEdgeStyle;rounded=0;orthogonalLoop=1;jettySize=auto;html=1;entryX=0.5;entryY=0;entryDx=0;entryDy=0;labelBackgroundColor=none;strokeColor=#1A1A1A;fontColor=default;strokeWidth=1;" parent="1" source="4498GJh0joUod8Id8tWc-1" target="4498GJh0joUod8Id8tWc-77" edge="1">
          <mxGeometry relative="1" as="geometry" />
        </mxCell>
        <mxCell id="4498GJh0joUod8Id8tWc-1" value="&lt;b&gt;1&lt;/b&gt;. Пользователь запускает &lt;br&gt;ВК-бот" style="rounded=1;whiteSpace=wrap;html=1;arcSize=50;labelBackgroundColor=none;fillColor=#B2C9AB;strokeColor=#788AA3;fontColor=#46495D;" parent="1" vertex="1">
          <mxGeometry x="634.25" y="15" width="180" height="30" as="geometry" />
        </mxCell>
        <mxCell id="lWZUqKvUinrnLsrHvL62-19" style="edgeStyle=orthogonalEdgeStyle;rounded=0;orthogonalLoop=1;jettySize=auto;html=1;entryX=0.5;entryY=0;entryDx=0;entryDy=0;labelBackgroundColor=none;strokeColor=#1A1A1A;fontColor=default;" parent="1" source="4498GJh0joUod8Id8tWc-3" target="lWZUqKvUinrnLsrHvL62-7" edge="1">
          <mxGeometry relative="1" as="geometry" />
        </mxCell>
        <mxCell id="TbWjqtwZ__HwhqzWgcYX-2" style="edgeStyle=orthogonalEdgeStyle;rounded=0;orthogonalLoop=1;jettySize=auto;html=1;entryX=0;entryY=0.5;entryDx=0;entryDy=0;labelBackgroundColor=none;strokeColor=#1A1A1A;fontColor=default;" parent="1" source="4498GJh0joUod8Id8tWc-3" target="yBYZtMUyjf2cW572dm1t-1" edge="1">
          <mxGeometry relative="1" as="geometry">
            <mxPoint x="1015" y="465" as="targetPoint" />
          </mxGeometry>
        </mxCell>
        <mxCell id="4498GJh0joUod8Id8tWc-3" value="&lt;b&gt;5&lt;/b&gt;. Программа делает &lt;br&gt;проверкуget-запроса &lt;br&gt;status_code == 200-299&lt;br&gt;&amp;nbsp;" style="rhombus;whiteSpace=wrap;html=1;labelBackgroundColor=none;fillColor=#B2C9AB;strokeColor=#788AA3;fontColor=#46495D;" parent="1" vertex="1">
          <mxGeometry x="587.13" y="410" width="274.25" height="110" as="geometry" />
        </mxCell>
        <mxCell id="lWZUqKvUinrnLsrHvL62-27" style="edgeStyle=orthogonalEdgeStyle;rounded=0;orthogonalLoop=1;jettySize=auto;html=1;entryX=0.5;entryY=0;entryDx=0;entryDy=0;labelBackgroundColor=none;strokeColor=#788AA3;fontColor=default;" parent="1" source="4498GJh0joUod8Id8tWc-9" target="lWZUqKvUinrnLsrHvL62-21" edge="1">
          <mxGeometry relative="1" as="geometry" />
        </mxCell>
        <mxCell id="TbWjqtwZ__HwhqzWgcYX-13" style="edgeStyle=orthogonalEdgeStyle;rounded=0;orthogonalLoop=1;jettySize=auto;html=1;entryX=0;entryY=0.5;entryDx=0;entryDy=0;labelBackgroundColor=none;strokeColor=#788AA3;fontColor=default;" parent="1" source="4498GJh0joUod8Id8tWc-9" target="TbWjqtwZ__HwhqzWgcYX-12" edge="1">
          <mxGeometry relative="1" as="geometry" />
        </mxCell>
        <mxCell id="4498GJh0joUod8Id8tWc-9" value="&lt;b&gt;9&lt;/b&gt;. Программа делает&lt;br style=&quot;border-color: var(--border-color);&quot;&gt;проверку get-запроса&lt;br style=&quot;border-color: var(--border-color);&quot;&gt;status_code == 200-299&lt;br style=&quot;border-color: var(--border-color);&quot;&gt;&amp;nbsp;" style="rhombus;whiteSpace=wrap;html=1;labelBackgroundColor=none;fillColor=#B2C9AB;strokeColor=#788AA3;fontColor=#46495D;" parent="1" vertex="1">
          <mxGeometry x="585" y="890" width="280" height="96" as="geometry" />
        </mxCell>
        <mxCell id="4498GJh0joUod8Id8tWc-14" value="Нет" style="text;html=1;align=center;verticalAlign=middle;whiteSpace=wrap;rounded=0;labelBackgroundColor=none;fontColor=#46495D;" parent="1" vertex="1">
          <mxGeometry x="845.25" y="910" width="60" height="30" as="geometry" />
        </mxCell>
        <mxCell id="4498GJh0joUod8Id8tWc-15" value="Нет" style="text;html=1;align=center;verticalAlign=middle;whiteSpace=wrap;rounded=0;labelBackgroundColor=none;fontColor=#46495D;" parent="1" vertex="1">
          <mxGeometry x="870" y="435" width="60" height="30" as="geometry" />
        </mxCell>
        <mxCell id="Rw_i3N-wglAm2aarJf0j-1" value="" style="edgeStyle=orthogonalEdgeStyle;rounded=0;orthogonalLoop=1;jettySize=auto;html=1;strokeColor=#788AA3;fontColor=#46495D;fillColor=#B2C9AB;" edge="1" parent="1" source="4498GJh0joUod8Id8tWc-16" target="lWZUqKvUinrnLsrHvL62-7">
          <mxGeometry relative="1" as="geometry" />
        </mxCell>
        <mxCell id="4498GJh0joUod8Id8tWc-16" value="Да" style="text;html=1;align=center;verticalAlign=middle;whiteSpace=wrap;rounded=0;labelBackgroundColor=none;fontColor=#46495D;" parent="1" vertex="1">
          <mxGeometry x="720" y="520" width="60" height="30" as="geometry" />
        </mxCell>
        <mxCell id="4498GJh0joUod8Id8tWc-17" value="Да" style="text;html=1;align=center;verticalAlign=middle;whiteSpace=wrap;rounded=0;labelBackgroundColor=none;fontColor=#46495D;" parent="1" vertex="1">
          <mxGeometry x="710" y="986" width="60" height="30" as="geometry" />
        </mxCell>
        <mxCell id="4498GJh0joUod8Id8tWc-58" style="edgeStyle=orthogonalEdgeStyle;rounded=0;orthogonalLoop=1;jettySize=auto;html=1;exitX=0.5;exitY=1;exitDx=0;exitDy=0;entryX=0.5;entryY=0;entryDx=0;entryDy=0;labelBackgroundColor=none;strokeColor=#788AA3;fontColor=default;" parent="1" source="4498GJh0joUod8Id8tWc-33" target="4498GJh0joUod8Id8tWc-57" edge="1">
          <mxGeometry relative="1" as="geometry" />
        </mxCell>
        <mxCell id="4498GJh0joUod8Id8tWc-33" value="&lt;b&gt;12&lt;/b&gt;. Для каждого&amp;nbsp;&lt;b style=&quot;border-color: var(--border-color);&quot;&gt;partner_id&lt;/b&gt;&amp;nbsp;из таблицы&amp;nbsp;&lt;b style=&quot;border-color: var(--border-color);&quot;&gt;VK_Partners&lt;/b&gt;&amp;nbsp;производится запрос:&lt;br style=&quot;border-color: var(--border-color);&quot;&gt;&lt;br style=&quot;border-color: var(--border-color);&quot;&gt;&lt;span style=&quot;border-color: var(--border-color);&quot;&gt;&lt;b&gt;photos.getAll&lt;/b&gt;&lt;br style=&quot;border-color: var(--border-color);&quot;&gt;&lt;b&gt;params={&#39;owner_id&#39;=partner_id, extended&#39;=&#39;1&#39;}&lt;br&gt;&lt;/b&gt;&lt;br&gt;&lt;b&gt;Response.json &lt;/b&gt;переводится&amp;nbsp;в список кортежей&lt;b&gt;&amp;nbsp;photo_list=[(link, likes)]&lt;/b&gt;&lt;br&gt;&lt;br&gt;Производится сортировка полученного списка кортежей по значению &#39;&lt;b&gt;likes&lt;/b&gt;&#39;:&lt;br&gt;&lt;b&gt;photo_list.sort(key = lamda item: item[1])&lt;/b&gt;&lt;br&gt;&lt;br&gt;Первые 3 значения &lt;b&gt;link&lt;/b&gt; из листа&amp;nbsp;&lt;b&gt;photo_list&lt;/b&gt;&amp;nbsp;для каждого &lt;b&gt;partner_id&lt;/b&gt;&amp;nbsp;записываются в таблицу &lt;b&gt;VK_Photos&lt;/b&gt;&lt;br&gt;&lt;br&gt;&lt;/span&gt;" style="shape=process;whiteSpace=wrap;html=1;backgroundOutline=1;labelBackgroundColor=none;fillColor=#B2C9AB;strokeColor=#788AA3;fontColor=#46495D;" parent="1" vertex="1">
          <mxGeometry x="575" y="1290" width="300.5" height="290" as="geometry" />
        </mxCell>
        <mxCell id="4498GJh0joUod8Id8tWc-45" style="edgeStyle=orthogonalEdgeStyle;rounded=0;orthogonalLoop=1;jettySize=auto;html=1;labelBackgroundColor=none;strokeColor=#788AA3;fontColor=default;" parent="1" source="4498GJh0joUod8Id8tWc-39" target="4498GJh0joUod8Id8tWc-33" edge="1">
          <mxGeometry relative="1" as="geometry" />
        </mxCell>
        <mxCell id="4498GJh0joUod8Id8tWc-39" value="&lt;b&gt;11&lt;/b&gt;. Из&amp;nbsp;&lt;b style=&quot;border-color: var(--border-color);&quot;&gt;response.json&amp;nbsp;&lt;/b&gt;записать в таблицу&amp;nbsp;&lt;b style=&quot;border-color: var(--border-color);&quot;&gt;VK_Partners&lt;/b&gt;&amp;nbsp;данные&amp;nbsp;&lt;b style=&quot;border-color: var(--border-color);&quot;&gt;partner_id, first_name, last_name&lt;/b&gt;" style="shape=process;whiteSpace=wrap;html=1;backgroundOutline=1;labelBackgroundColor=none;fillColor=#B2C9AB;strokeColor=#788AA3;fontColor=#46495D;" parent="1" vertex="1">
          <mxGeometry x="575.5" y="1170" width="300" height="80" as="geometry" />
        </mxCell>
        <mxCell id="lWZUqKvUinrnLsrHvL62-25" style="edgeStyle=orthogonalEdgeStyle;rounded=0;orthogonalLoop=1;jettySize=auto;html=1;entryX=0.5;entryY=0;entryDx=0;entryDy=0;labelBackgroundColor=none;strokeColor=#788AA3;fontColor=default;" parent="1" source="4498GJh0joUod8Id8tWc-53" target="4498GJh0joUod8Id8tWc-9" edge="1">
          <mxGeometry relative="1" as="geometry" />
        </mxCell>
        <mxCell id="4498GJh0joUod8Id8tWc-53" value="&lt;b&gt;8.&lt;/b&gt; Программа делает запрос данных о возможных партнерах в базу данных ВК с параметрами запроса:&lt;br style=&quot;border-color: var(--border-color);&quot;&gt;&lt;br style=&quot;border-color: var(--border-color);&quot;&gt;&lt;b style=&quot;border-color: var(--border-color);&quot;&gt;user.search&lt;br style=&quot;border-color: var(--border-color);&quot;&gt;params={&#39;fields&#39;=&#39;city=..., age_from=...,&lt;br style=&quot;border-color: var(--border-color);&quot;&gt;age_to=..., sex=..., has_photo=1&#39;}&lt;/b&gt;" style="rounded=0;whiteSpace=wrap;html=1;labelBackgroundColor=none;fillColor=#B2C9AB;strokeColor=#788AA3;fontColor=#46495D;" parent="1" vertex="1">
          <mxGeometry x="570" y="770" width="310" height="90" as="geometry" />
        </mxCell>
        <mxCell id="4498GJh0joUod8Id8tWc-62" style="edgeStyle=orthogonalEdgeStyle;rounded=0;orthogonalLoop=1;jettySize=auto;html=1;entryX=0.5;entryY=0;entryDx=0;entryDy=0;exitX=0.5;exitY=1;exitDx=0;exitDy=0;labelBackgroundColor=none;strokeColor=#788AA3;fontColor=default;" parent="1" source="yBYZtMUyjf2cW572dm1t-7" target="yBYZtMUyjf2cW572dm1t-10" edge="1">
          <mxGeometry relative="1" as="geometry" />
        </mxCell>
        <mxCell id="yBYZtMUyjf2cW572dm1t-8" style="edgeStyle=orthogonalEdgeStyle;rounded=0;orthogonalLoop=1;jettySize=auto;html=1;exitX=0.5;exitY=1;exitDx=0;exitDy=0;entryX=0.5;entryY=0;entryDx=0;entryDy=0;labelBackgroundColor=none;strokeColor=#788AA3;fontColor=default;" parent="1" source="4498GJh0joUod8Id8tWc-57" target="yBYZtMUyjf2cW572dm1t-7" edge="1">
          <mxGeometry relative="1" as="geometry" />
        </mxCell>
        <mxCell id="4498GJh0joUod8Id8tWc-57" value="&lt;b&gt;13&lt;/b&gt;. Бот формирует сообщение с указанием количества найденных результатов&lt;br&gt;&lt;b&gt;partners_count = VK_Partners.count()&lt;br&gt;&lt;/b&gt;" style="rounded=0;whiteSpace=wrap;html=1;labelBackgroundColor=none;fillColor=#B2C9AB;strokeColor=#788AA3;fontColor=#46495D;" parent="1" vertex="1">
          <mxGeometry x="575.5" y="1620" width="300" height="70" as="geometry" />
        </mxCell>
        <mxCell id="4498GJh0joUod8Id8tWc-65" style="edgeStyle=orthogonalEdgeStyle;rounded=0;orthogonalLoop=1;jettySize=auto;html=1;exitX=0.5;exitY=1;exitDx=0;exitDy=0;entryX=0.5;entryY=0;entryDx=0;entryDy=0;labelBackgroundColor=none;strokeColor=#788AA3;fontColor=default;" parent="1" source="4498GJh0joUod8Id8tWc-59" target="4498GJh0joUod8Id8tWc-66" edge="1">
          <mxGeometry relative="1" as="geometry">
            <mxPoint x="740" y="1470" as="targetPoint" />
          </mxGeometry>
        </mxCell>
        <mxCell id="4498GJh0joUod8Id8tWc-59" value="17. BK-бот отправляет результат" style="shape=parallelogram;perimeter=parallelogramPerimeter;whiteSpace=wrap;html=1;fixedSize=1;labelBackgroundColor=none;fillColor=#B2C9AB;strokeColor=#788AA3;fontColor=#46495D;" parent="1" vertex="1">
          <mxGeometry x="580.5" y="2110" width="290" height="60" as="geometry" />
        </mxCell>
        <mxCell id="4498GJh0joUod8Id8tWc-63" style="edgeStyle=orthogonalEdgeStyle;rounded=0;orthogonalLoop=1;jettySize=auto;html=1;exitX=0.5;exitY=1;exitDx=0;exitDy=0;entryX=0.5;entryY=0;entryDx=0;entryDy=0;labelBackgroundColor=none;strokeColor=#788AA3;fontColor=default;" parent="1" source="4498GJh0joUod8Id8tWc-61" target="4498GJh0joUod8Id8tWc-59" edge="1">
          <mxGeometry relative="1" as="geometry" />
        </mxCell>
        <mxCell id="4498GJh0joUod8Id8tWc-61" value="16. Формируется ответ ВК-бота:&lt;br&gt;Если&amp;nbsp;&lt;b&gt;VK_Partners.ban != True -&amp;gt; partner_id&lt;br&gt;&lt;/b&gt;&lt;div style=&quot;text-align: left; border-color: var(--border-color);&quot;&gt;Если&amp;nbsp;&lt;span style=&quot;border-color: var(--border-color); background-color: initial;&quot;&gt;&lt;b style=&quot;border-color: var(--border-color);&quot;&gt;VK_Partners.ban == True -&amp;gt;&amp;nbsp;&lt;/b&gt;&lt;/span&gt;&lt;span style=&quot;background-color: initial; border-color: var(--border-color);&quot;&gt;следующий&lt;/span&gt;&lt;b style=&quot;background-color: initial; border-color: var(--border-color);&quot;&gt;&amp;nbsp;&lt;b style=&quot;background-color: initial; border-color: var(--border-color);&quot;&gt;partner_id&lt;/b&gt;&lt;/b&gt;&lt;/div&gt;&lt;div style=&quot;border-color: var(--border-color);&quot;&gt;&lt;b style=&quot;background-color: initial; border-color: var(--border-color);&quot;&gt;&lt;br&gt;&lt;/b&gt;&lt;/div&gt;&lt;div style=&quot;text-align: left;&quot;&gt;&lt;span style=&quot;background-color: initial;&quot;&gt;Имя =&lt;/span&gt;&lt;b style=&quot;background-color: initial; border-color: var(--border-color);&quot;&gt;&amp;nbsp;VK_Partners.&lt;/b&gt;&lt;b style=&quot;background-color: initial; border-color: var(--border-color);&quot;&gt;first_name (WHERE partner_id=...)&lt;/b&gt;&lt;span style=&quot;background-color: initial;&quot;&gt;&amp;nbsp;&lt;/span&gt;&lt;/div&gt;&lt;div style=&quot;text-align: left;&quot;&gt;&lt;span style=&quot;background-color: initial;&quot;&gt;Фамилия =&lt;/span&gt;&lt;b style=&quot;background-color: initial; border-color: var(--border-color);&quot;&gt;&amp;nbsp;VK_Partners.&lt;/b&gt;&lt;b style=&quot;background-color: initial; border-color: var(--border-color);&quot;&gt;last_name&amp;nbsp;&lt;/b&gt;&lt;b style=&quot;background-color: initial; border-color: var(--border-color);&quot;&gt;(WHERE partner_id=...)&lt;/b&gt;&lt;/div&gt;&lt;div style=&quot;text-align: left;&quot;&gt;&lt;span style=&quot;background-color: initial;&quot;&gt;Ссылка = link_default+&lt;/span&gt;&lt;b style=&quot;background-color: initial; border-color: var(--border-color);&quot;&gt;partner_id&lt;/b&gt;&lt;/div&gt;&lt;div style=&quot;text-align: left;&quot;&gt;&lt;span style=&quot;background-color: initial;&quot;&gt;Фотографии =&amp;nbsp;&lt;/span&gt;&lt;b style=&quot;background-color: initial; border-color: var(--border-color);&quot;&gt;VK_Photos.link&amp;nbsp;&lt;/b&gt;&lt;b style=&quot;background-color: initial; border-color: var(--border-color);&quot;&gt;(WHERE partner_id=...)&lt;/b&gt;&lt;/div&gt;&lt;div style=&quot;text-align: left;&quot;&gt;&lt;br&gt;&lt;/div&gt;" style="rounded=0;whiteSpace=wrap;html=1;labelBackgroundColor=none;fillColor=#B2C9AB;strokeColor=#788AA3;fontColor=#46495D;" parent="1" vertex="1">
          <mxGeometry x="550" y="1931" width="350" height="140" as="geometry" />
        </mxCell>
        <mxCell id="4498GJh0joUod8Id8tWc-68" style="edgeStyle=orthogonalEdgeStyle;rounded=0;orthogonalLoop=1;jettySize=auto;html=1;exitX=0.5;exitY=1;exitDx=0;exitDy=0;entryX=0.5;entryY=0;entryDx=0;entryDy=0;labelBackgroundColor=none;strokeColor=#788AA3;fontColor=default;" parent="1" source="4498GJh0joUod8Id8tWc-66" target="4498GJh0joUod8Id8tWc-67" edge="1">
          <mxGeometry relative="1" as="geometry" />
        </mxCell>
        <mxCell id="4498GJh0joUod8Id8tWc-66" value="18. Ввод данных пользователем для ВК-бота. &lt;br&gt;Кнопки:&lt;br&gt;&lt;div style=&quot;text-align: left;&quot;&gt;&lt;span style=&quot;background-color: initial;&quot;&gt;&quot;Следующий&quot;,&amp;nbsp;&lt;/span&gt;&lt;/div&gt;&lt;div style=&quot;text-align: left;&quot;&gt;&lt;span style=&quot;background-color: initial;&quot;&gt;&quot;Предыдущий&quot;,&amp;nbsp;&lt;/span&gt;&lt;/div&gt;&lt;div style=&quot;text-align: left;&quot;&gt;&lt;span style=&quot;background-color: initial;&quot;&gt;&quot;Новый поиск&quot;,&lt;/span&gt;&lt;/div&gt;&lt;div style=&quot;text-align: left;&quot;&gt;&lt;span style=&quot;background-color: initial;&quot;&gt;&quot;В избранное&quot; (показывать если &lt;/span&gt;&lt;b style=&quot;background-color: initial;&quot;&gt;VK_Partners.favorite == False&lt;/b&gt;&lt;span style=&quot;background-color: initial;&quot;&gt;),&amp;nbsp;&lt;/span&gt;&lt;/div&gt;&lt;div style=&quot;text-align: left;&quot;&gt;&lt;span style=&quot;background-color: initial;&quot;&gt;&quot;Бан&quot;,&lt;/span&gt;&lt;/div&gt;&lt;div style=&quot;text-align: left;&quot;&gt;&lt;span style=&quot;background-color: initial;&quot;&gt;&quot;Показать избранное&quot;,&lt;/span&gt;&lt;/div&gt;&lt;div style=&quot;text-align: left;&quot;&gt;&lt;span style=&quot;background-color: initial;&quot;&gt;&quot;Закончить&quot;&lt;/span&gt;&lt;/div&gt;" style="shape=parallelogram;perimeter=parallelogramPerimeter;whiteSpace=wrap;html=1;fixedSize=1;labelBackgroundColor=none;fillColor=#B2C9AB;strokeColor=#788AA3;fontColor=#46495D;" parent="1" vertex="1">
          <mxGeometry x="495" y="2200" width="460" height="161" as="geometry" />
        </mxCell>
        <mxCell id="4498GJh0joUod8Id8tWc-76" style="edgeStyle=orthogonalEdgeStyle;rounded=0;orthogonalLoop=1;jettySize=auto;html=1;entryX=0.5;entryY=0;entryDx=0;entryDy=0;labelBackgroundColor=none;strokeColor=#788AA3;fontColor=default;" parent="1" source="4498GJh0joUod8Id8tWc-67" target="4498GJh0joUod8Id8tWc-75" edge="1">
          <mxGeometry relative="1" as="geometry" />
        </mxCell>
        <mxCell id="lWZUqKvUinrnLsrHvL62-30" style="edgeStyle=orthogonalEdgeStyle;rounded=0;orthogonalLoop=1;jettySize=auto;html=1;entryX=0;entryY=0.25;entryDx=0;entryDy=0;exitX=0;exitY=0;exitDx=0;exitDy=0;labelBackgroundColor=none;strokeColor=#1A1A1A;fontColor=default;" parent="1" source="4498GJh0joUod8Id8tWc-67" target="4498GJh0joUod8Id8tWc-77" edge="1">
          <mxGeometry relative="1" as="geometry">
            <mxPoint x="600" y="2460" as="sourcePoint" />
            <Array as="points">
              <mxPoint x="689" y="2440" />
              <mxPoint x="480" y="2440" />
              <mxPoint x="480" y="98" />
            </Array>
          </mxGeometry>
        </mxCell>
        <mxCell id="yBYZtMUyjf2cW572dm1t-16" style="edgeStyle=orthogonalEdgeStyle;rounded=0;orthogonalLoop=1;jettySize=auto;html=1;exitX=0;exitY=0.5;exitDx=0;exitDy=0;entryX=0.5;entryY=0;entryDx=0;entryDy=0;labelBackgroundColor=none;strokeColor=#1A1A1A;fontColor=default;" parent="1" source="4498GJh0joUod8Id8tWc-67" target="yBYZtMUyjf2cW572dm1t-17" edge="1">
          <mxGeometry relative="1" as="geometry">
            <mxPoint x="440" y="2540" as="targetPoint" />
          </mxGeometry>
        </mxCell>
        <mxCell id="yBYZtMUyjf2cW572dm1t-30" style="edgeStyle=orthogonalEdgeStyle;rounded=0;orthogonalLoop=1;jettySize=auto;html=1;exitX=1;exitY=1;exitDx=0;exitDy=0;entryX=0;entryY=0.5;entryDx=0;entryDy=0;labelBackgroundColor=none;strokeColor=#1A1A1A;fontColor=default;" parent="1" source="4498GJh0joUod8Id8tWc-67" target="yBYZtMUyjf2cW572dm1t-31" edge="1">
          <mxGeometry relative="1" as="geometry">
            <mxPoint x="930" y="2550" as="targetPoint" />
            <Array as="points">
              <mxPoint x="1020" y="2487" />
              <mxPoint x="1020" y="2030" />
            </Array>
          </mxGeometry>
        </mxCell>
        <mxCell id="4498GJh0joUod8Id8tWc-67" value="19. Какие данные &lt;br&gt;введены?" style="rhombus;whiteSpace=wrap;html=1;labelBackgroundColor=none;fillColor=#B2C9AB;strokeColor=#788AA3;fontColor=#46495D;" parent="1" vertex="1">
          <mxGeometry x="651.75" y="2419" width="147.5" height="90" as="geometry" />
        </mxCell>
        <mxCell id="4498GJh0joUod8Id8tWc-73" value="Новый поиск" style="text;html=1;align=center;verticalAlign=middle;whiteSpace=wrap;rounded=0;labelBackgroundColor=none;fontColor=#46495D;" parent="1" vertex="1">
          <mxGeometry x="501.75" y="2401" width="150" height="50" as="geometry" />
        </mxCell>
        <mxCell id="4498GJh0joUod8Id8tWc-74" value="" style="edgeStyle=orthogonalEdgeStyle;rounded=0;orthogonalLoop=1;jettySize=auto;html=1;entryX=1;entryY=0.5;entryDx=0;entryDy=0;exitX=1;exitY=0.5;exitDx=0;exitDy=0;labelBackgroundColor=none;strokeColor=#1A1A1A;fontColor=default;" parent="1" source="4498GJh0joUod8Id8tWc-67" target="4498GJh0joUod8Id8tWc-61" edge="1">
          <mxGeometry relative="1" as="geometry">
            <mxPoint x="724" y="2430" as="sourcePoint" />
            <mxPoint x="920" y="1680" as="targetPoint" />
            <Array as="points">
              <mxPoint x="799" y="2465" />
              <mxPoint x="970" y="2465" />
              <mxPoint x="970" y="2001" />
            </Array>
          </mxGeometry>
        </mxCell>
        <mxCell id="4498GJh0joUod8Id8tWc-70" value="Показать следующий или предыдущий &lt;br&gt;&lt;b&gt;partner_id +_ 1&lt;/b&gt;" style="text;html=1;align=center;verticalAlign=middle;whiteSpace=wrap;rounded=0;labelBackgroundColor=none;fontColor=#46495D;" parent="1" vertex="1">
          <mxGeometry x="800" y="2413" width="150" height="50" as="geometry" />
        </mxCell>
        <mxCell id="4498GJh0joUod8Id8tWc-75" value="20. Выход &lt;br&gt;(Ожидание следующего запроса)" style="rounded=1;whiteSpace=wrap;html=1;arcSize=50;labelBackgroundColor=none;fillColor=#B2C9AB;strokeColor=#788AA3;fontColor=#46495D;" parent="1" vertex="1">
          <mxGeometry x="635.5" y="2561" width="180" height="50" as="geometry" />
        </mxCell>
        <mxCell id="lWZUqKvUinrnLsrHvL62-12" style="edgeStyle=orthogonalEdgeStyle;rounded=0;orthogonalLoop=1;jettySize=auto;html=1;entryX=0.5;entryY=0;entryDx=0;entryDy=0;labelBackgroundColor=none;strokeColor=#1A1A1A;fontColor=default;strokeWidth=1;" parent="1" source="4498GJh0joUod8Id8tWc-77" target="yBYZtMUyjf2cW572dm1t-4" edge="1">
          <mxGeometry relative="1" as="geometry">
            <mxPoint x="725" y="230" as="targetPoint" />
          </mxGeometry>
        </mxCell>
        <mxCell id="4498GJh0joUod8Id8tWc-77" value="&lt;b&gt;2&lt;/b&gt;. Сброс (&lt;b&gt;DROP&lt;/b&gt;) таблиц БД" style="rounded=0;whiteSpace=wrap;html=1;labelBackgroundColor=none;fillColor=#B2C9AB;strokeColor=#788AA3;fontColor=#46495D;" parent="1" vertex="1">
          <mxGeometry x="570" y="90" width="310" height="30" as="geometry" />
        </mxCell>
        <mxCell id="lWZUqKvUinrnLsrHvL62-17" value="" style="edgeStyle=orthogonalEdgeStyle;rounded=0;orthogonalLoop=1;jettySize=auto;html=1;labelBackgroundColor=none;strokeColor=#1A1A1A;fontColor=default;" parent="1" source="lWZUqKvUinrnLsrHvL62-4" target="4498GJh0joUod8Id8tWc-3" edge="1">
          <mxGeometry relative="1" as="geometry" />
        </mxCell>
        <mxCell id="lWZUqKvUinrnLsrHvL62-4" value="&lt;b&gt;4&lt;/b&gt;. Программа делает get-запрос данных пользователя" style="rounded=0;whiteSpace=wrap;html=1;labelBackgroundColor=none;fillColor=#B2C9AB;strokeColor=#788AA3;fontColor=#46495D;" parent="1" vertex="1">
          <mxGeometry x="565" y="310" width="320" height="60" as="geometry" />
        </mxCell>
        <mxCell id="TbWjqtwZ__HwhqzWgcYX-16" style="edgeStyle=orthogonalEdgeStyle;rounded=0;orthogonalLoop=1;jettySize=auto;html=1;entryX=0.5;entryY=0;entryDx=0;entryDy=0;labelBackgroundColor=none;strokeColor=#788AA3;fontColor=default;" parent="1" source="lWZUqKvUinrnLsrHvL62-7" target="TbWjqtwZ__HwhqzWgcYX-15" edge="1">
          <mxGeometry relative="1" as="geometry" />
        </mxCell>
        <mxCell id="lWZUqKvUinrnLsrHvL62-7" value="&lt;div style=&quot;text-align: left;&quot;&gt;&lt;span style=&quot;background-color: initial;&quot;&gt;&lt;b&gt;6&lt;/b&gt;. Программа из полученых данных выбирает следующие:&lt;/span&gt;&lt;/div&gt;&lt;blockquote style=&quot;margin: 0 0 0 40px; border: none; padding: 0px;&quot;&gt;&lt;div style=&quot;text-align: left;&quot;&gt;&lt;span style=&quot;background-color: initial;&quot;&gt;1. Город проживания&lt;/span&gt;&lt;/div&gt;&lt;/blockquote&gt;&lt;blockquote style=&quot;margin: 0 0 0 40px; border: none; padding: 0px;&quot;&gt;&lt;div style=&quot;text-align: left;&quot;&gt;&lt;span style=&quot;background-color: initial;&quot;&gt;2. Пол пользователя&lt;/span&gt;&lt;/div&gt;&lt;/blockquote&gt;&lt;blockquote style=&quot;margin: 0 0 0 40px; border: none; padding: 0px;&quot;&gt;&lt;div style=&quot;text-align: left;&quot;&gt;&lt;span style=&quot;background-color: initial;&quot;&gt;3. Возраст пользователя&lt;/span&gt;&lt;/div&gt;&lt;/blockquote&gt;&lt;div style=&quot;text-align: left;&quot;&gt;&lt;span style=&quot;background-color: initial;&quot;&gt;Присваивает полученные данные соответствующим переменным&lt;/span&gt;&lt;/div&gt;" style="rounded=0;whiteSpace=wrap;html=1;labelBackgroundColor=none;fillColor=#B2C9AB;strokeColor=#788AA3;fontColor=#46495D;" parent="1" vertex="1">
          <mxGeometry x="532.63" y="560" width="383.25" height="90" as="geometry" />
        </mxCell>
        <mxCell id="lWZUqKvUinrnLsrHvL62-29" style="edgeStyle=orthogonalEdgeStyle;rounded=0;orthogonalLoop=1;jettySize=auto;html=1;entryX=0.5;entryY=0;entryDx=0;entryDy=0;labelBackgroundColor=none;strokeColor=#788AA3;fontColor=default;" parent="1" source="lWZUqKvUinrnLsrHvL62-21" target="4498GJh0joUod8Id8tWc-39" edge="1">
          <mxGeometry relative="1" as="geometry" />
        </mxCell>
        <mxCell id="TbWjqtwZ__HwhqzWgcYX-21" style="edgeStyle=orthogonalEdgeStyle;rounded=0;orthogonalLoop=1;jettySize=auto;html=1;labelBackgroundColor=none;strokeColor=#1A1A1A;fontColor=default;" parent="1" source="lWZUqKvUinrnLsrHvL62-21" target="yBYZtMUyjf2cW572dm1t-2" edge="1">
          <mxGeometry relative="1" as="geometry">
            <mxPoint x="1365" y="1272" as="targetPoint" />
          </mxGeometry>
        </mxCell>
        <mxCell id="lWZUqKvUinrnLsrHvL62-21" value="&lt;b&gt;10&lt;/b&gt;. Программа проверяет &lt;br&gt;количество партнеров &amp;gt; 0&lt;br style=&quot;border-color: var(--border-color);&quot;&gt;&amp;nbsp;" style="rhombus;whiteSpace=wrap;html=1;labelBackgroundColor=none;fillColor=#B2C9AB;strokeColor=#788AA3;fontColor=#46495D;" parent="1" vertex="1">
          <mxGeometry x="585" y="1024" width="280" height="96" as="geometry" />
        </mxCell>
        <mxCell id="lWZUqKvUinrnLsrHvL62-26" value="Да" style="text;html=1;align=center;verticalAlign=middle;whiteSpace=wrap;rounded=0;labelBackgroundColor=none;fontColor=#46495D;" parent="1" vertex="1">
          <mxGeometry x="710" y="1120" width="60" height="30" as="geometry" />
        </mxCell>
        <mxCell id="lWZUqKvUinrnLsrHvL62-28" value="Нет" style="text;html=1;align=center;verticalAlign=middle;whiteSpace=wrap;rounded=0;labelBackgroundColor=none;fontColor=#46495D;" parent="1" vertex="1">
          <mxGeometry x="854.25" y="1050" width="60" height="30" as="geometry" />
        </mxCell>
        <mxCell id="TbWjqtwZ__HwhqzWgcYX-10" style="edgeStyle=orthogonalEdgeStyle;rounded=0;orthogonalLoop=1;jettySize=auto;html=1;entryX=0.5;entryY=1;entryDx=0;entryDy=0;exitX=1;exitY=0.5;exitDx=0;exitDy=0;labelBackgroundColor=none;strokeColor=#1A1A1A;fontColor=default;" parent="1" source="yBYZtMUyjf2cW572dm1t-1" target="4498GJh0joUod8Id8tWc-75" edge="1">
          <mxGeometry relative="1" as="geometry">
            <Array as="points">
              <mxPoint x="1470" y="465" />
              <mxPoint x="1470" y="2670" />
              <mxPoint x="726" y="2670" />
            </Array>
            <mxPoint x="1120" y="790" as="sourcePoint" />
          </mxGeometry>
        </mxCell>
        <mxCell id="yBYZtMUyjf2cW572dm1t-9" style="edgeStyle=orthogonalEdgeStyle;rounded=0;orthogonalLoop=1;jettySize=auto;html=1;entryX=1;entryY=0.5;entryDx=0;entryDy=0;labelBackgroundColor=none;strokeColor=#1A1A1A;fontColor=default;" parent="1" source="TbWjqtwZ__HwhqzWgcYX-12" target="4498GJh0joUod8Id8tWc-75" edge="1">
          <mxGeometry relative="1" as="geometry">
            <mxPoint x="1070" y="1770" as="targetPoint" />
            <Array as="points">
              <mxPoint x="990" y="2586" />
            </Array>
          </mxGeometry>
        </mxCell>
        <mxCell id="TbWjqtwZ__HwhqzWgcYX-12" value="9.1. Программа выводит сообщение об ошибке" style="rounded=0;whiteSpace=wrap;html=1;labelBackgroundColor=none;fillColor=#B2C9AB;strokeColor=#788AA3;fontColor=#46495D;" parent="1" vertex="1">
          <mxGeometry x="940" y="912" width="220" height="52" as="geometry" />
        </mxCell>
        <mxCell id="TbWjqtwZ__HwhqzWgcYX-17" style="edgeStyle=orthogonalEdgeStyle;rounded=0;orthogonalLoop=1;jettySize=auto;html=1;entryX=0.5;entryY=0;entryDx=0;entryDy=0;labelBackgroundColor=none;strokeColor=#788AA3;fontColor=default;" parent="1" source="TbWjqtwZ__HwhqzWgcYX-15" target="4498GJh0joUod8Id8tWc-53" edge="1">
          <mxGeometry relative="1" as="geometry" />
        </mxCell>
        <mxCell id="TbWjqtwZ__HwhqzWgcYX-15" value="7. Программа предлагает ввести &lt;br&gt;диапазон возраста партнеров&lt;br&gt;и присваивает эти данные &lt;br&gt;соответствующим переменным" style="shape=parallelogram;perimeter=parallelogramPerimeter;whiteSpace=wrap;html=1;fixedSize=1;labelBackgroundColor=none;fillColor=#B2C9AB;strokeColor=#788AA3;fontColor=#46495D;" parent="1" vertex="1">
          <mxGeometry x="594.25" y="680" width="260" height="60" as="geometry" />
        </mxCell>
        <mxCell id="TbWjqtwZ__HwhqzWgcYX-22" style="edgeStyle=orthogonalEdgeStyle;rounded=0;orthogonalLoop=1;jettySize=auto;html=1;entryX=0.5;entryY=0;entryDx=0;entryDy=0;exitX=0.5;exitY=1;exitDx=0;exitDy=0;labelBackgroundColor=none;strokeColor=#788AA3;fontColor=default;" parent="1" source="yBYZtMUyjf2cW572dm1t-2" target="TbWjqtwZ__HwhqzWgcYX-19" edge="1">
          <mxGeometry relative="1" as="geometry">
            <mxPoint x="1490" y="1302" as="sourcePoint" />
          </mxGeometry>
        </mxCell>
        <mxCell id="TbWjqtwZ__HwhqzWgcYX-23" style="edgeStyle=orthogonalEdgeStyle;rounded=0;orthogonalLoop=1;jettySize=auto;html=1;entryX=0.5;entryY=0;entryDx=0;entryDy=0;exitX=0.75;exitY=1;exitDx=0;exitDy=0;labelBackgroundColor=none;strokeColor=#788AA3;fontColor=default;" parent="1" source="TbWjqtwZ__HwhqzWgcYX-19" target="TbWjqtwZ__HwhqzWgcYX-20" edge="1">
          <mxGeometry relative="1" as="geometry" />
        </mxCell>
        <mxCell id="TbWjqtwZ__HwhqzWgcYX-19" value="10.2. Выводятся две кнопки:&lt;br&gt;&quot;Увеличить диапазон возраста &lt;br&gt;партнеров&quot;, &lt;br&gt;&quot;Закончить&quot;&amp;nbsp;&amp;nbsp;" style="shape=parallelogram;perimeter=parallelogramPerimeter;whiteSpace=wrap;html=1;fixedSize=1;labelBackgroundColor=none;fillColor=#B2C9AB;strokeColor=#788AA3;fontColor=#46495D;" parent="1" vertex="1">
          <mxGeometry x="1075" y="1150" width="350" height="80" as="geometry" />
        </mxCell>
        <mxCell id="TbWjqtwZ__HwhqzWgcYX-24" style="edgeStyle=orthogonalEdgeStyle;rounded=0;orthogonalLoop=1;jettySize=auto;html=1;entryX=1;entryY=0.5;entryDx=0;entryDy=0;exitX=1;exitY=0.5;exitDx=0;exitDy=0;labelBackgroundColor=none;strokeColor=#1A1A1A;fontColor=default;" parent="1" source="TbWjqtwZ__HwhqzWgcYX-20" target="TbWjqtwZ__HwhqzWgcYX-15" edge="1">
          <mxGeometry relative="1" as="geometry">
            <Array as="points">
              <mxPoint x="1450" y="1310" />
              <mxPoint x="1450" y="710" />
            </Array>
          </mxGeometry>
        </mxCell>
        <mxCell id="TbWjqtwZ__HwhqzWgcYX-20" value="10.3. Какие &lt;br&gt;данные&lt;br style=&quot;border-color: var(--border-color);&quot;&gt;введены?&amp;nbsp;&amp;nbsp;" style="rhombus;whiteSpace=wrap;html=1;labelBackgroundColor=none;fillColor=#B2C9AB;strokeColor=#788AA3;fontColor=#46495D;" parent="1" vertex="1">
          <mxGeometry x="1263" y="1270" width="150" height="80" as="geometry" />
        </mxCell>
        <mxCell id="TbWjqtwZ__HwhqzWgcYX-25" style="edgeStyle=orthogonalEdgeStyle;rounded=0;orthogonalLoop=1;jettySize=auto;html=1;entryX=0.75;entryY=1;entryDx=0;entryDy=0;exitX=0.5;exitY=1;exitDx=0;exitDy=0;labelBackgroundColor=none;strokeColor=#1A1A1A;fontColor=default;" parent="1" source="TbWjqtwZ__HwhqzWgcYX-20" target="4498GJh0joUod8Id8tWc-75" edge="1">
          <mxGeometry relative="1" as="geometry">
            <Array as="points">
              <mxPoint x="1340" y="1350" />
              <mxPoint x="1340" y="2630" />
              <mxPoint x="771" y="2630" />
            </Array>
          </mxGeometry>
        </mxCell>
        <mxCell id="TbWjqtwZ__HwhqzWgcYX-26" value="Увеличить диапазон возраста" style="text;html=1;align=center;verticalAlign=middle;whiteSpace=wrap;rounded=0;labelBackgroundColor=none;fontColor=#46495D;" parent="1" vertex="1">
          <mxGeometry x="1380" y="1250" width="60" height="30" as="geometry" />
        </mxCell>
        <mxCell id="TbWjqtwZ__HwhqzWgcYX-27" value="Закончить" style="text;html=1;align=center;verticalAlign=middle;whiteSpace=wrap;rounded=0;labelBackgroundColor=none;fontColor=#46495D;" parent="1" vertex="1">
          <mxGeometry x="1353" y="1360" width="60" height="30" as="geometry" />
        </mxCell>
        <mxCell id="yBYZtMUyjf2cW572dm1t-1" value="&lt;b&gt;15&lt;/b&gt;. Программа выводит &lt;br&gt;сообщение об ошибке" style="shape=parallelogram;perimeter=parallelogramPerimeter;whiteSpace=wrap;html=1;fixedSize=1;labelBackgroundColor=none;fillColor=#B2C9AB;strokeColor=#788AA3;fontColor=#46495D;" parent="1" vertex="1">
          <mxGeometry x="1060" y="445" width="240" height="40" as="geometry" />
        </mxCell>
        <mxCell id="yBYZtMUyjf2cW572dm1t-2" value="&lt;b&gt;10.1&lt;/b&gt;. Программа выводит сообщение&lt;br style=&quot;border-color: var(--border-color);&quot;&gt;&quot;партнеров не найдено&quot;" style="shape=parallelogram;perimeter=parallelogramPerimeter;whiteSpace=wrap;html=1;fixedSize=1;labelBackgroundColor=none;fillColor=#B2C9AB;strokeColor=#788AA3;fontColor=#46495D;" parent="1" vertex="1">
          <mxGeometry x="1130" y="1052" width="240" height="40" as="geometry" />
        </mxCell>
        <mxCell id="yBYZtMUyjf2cW572dm1t-6" style="edgeStyle=orthogonalEdgeStyle;rounded=0;orthogonalLoop=1;jettySize=auto;html=1;labelBackgroundColor=none;strokeColor=#1A1A1A;fontColor=default;" parent="1" source="yBYZtMUyjf2cW572dm1t-4" target="lWZUqKvUinrnLsrHvL62-4" edge="1">
          <mxGeometry relative="1" as="geometry" />
        </mxCell>
        <mxCell id="yBYZtMUyjf2cW572dm1t-4" value="3. Бот получает данные о &lt;b&gt;user_id&lt;/b&gt; из уведомления от &lt;b&gt;Callback API (JSON)&lt;/b&gt;" style="rounded=0;whiteSpace=wrap;html=1;labelBackgroundColor=none;fillColor=#B2C9AB;strokeColor=#788AA3;fontColor=#46495D;" parent="1" vertex="1">
          <mxGeometry x="564.25" y="175" width="320" height="60" as="geometry" />
        </mxCell>
        <mxCell id="yBYZtMUyjf2cW572dm1t-7" value="14. Бот отправляет сообщение с &lt;br&gt;указанием количества найденных партнеров (&lt;b&gt;partners_count&lt;/b&gt;)&lt;br&gt;показывает кнопки: &quot;Показать первого партнера&quot;, &lt;br&gt;&quot;Изменить условия поиска&quot;" style="shape=parallelogram;perimeter=parallelogramPerimeter;whiteSpace=wrap;html=1;fixedSize=1;labelBackgroundColor=none;fillColor=#B2C9AB;strokeColor=#788AA3;fontColor=#46495D;" parent="1" vertex="1">
          <mxGeometry x="530" y="1720" width="390" height="70" as="geometry" />
        </mxCell>
        <mxCell id="yBYZtMUyjf2cW572dm1t-12" style="edgeStyle=orthogonalEdgeStyle;rounded=0;orthogonalLoop=1;jettySize=auto;html=1;entryX=0.5;entryY=0;entryDx=0;entryDy=0;exitX=1;exitY=0.5;exitDx=0;exitDy=0;labelBackgroundColor=none;strokeColor=#788AA3;fontColor=default;" parent="1" source="yBYZtMUyjf2cW572dm1t-10" target="4498GJh0joUod8Id8tWc-61" edge="1">
          <mxGeometry relative="1" as="geometry">
            <Array as="points">
              <mxPoint x="940" y="1865" />
              <mxPoint x="940" y="1920" />
              <mxPoint x="726" y="1920" />
            </Array>
          </mxGeometry>
        </mxCell>
        <mxCell id="yBYZtMUyjf2cW572dm1t-13" style="edgeStyle=orthogonalEdgeStyle;rounded=0;orthogonalLoop=1;jettySize=auto;html=1;exitX=0;exitY=0.5;exitDx=0;exitDy=0;entryX=0;entryY=0.75;entryDx=0;entryDy=0;labelBackgroundColor=none;strokeColor=#1A1A1A;fontColor=default;" parent="1" source="yBYZtMUyjf2cW572dm1t-10" target="4498GJh0joUod8Id8tWc-77" edge="1">
          <mxGeometry relative="1" as="geometry">
            <Array as="points">
              <mxPoint x="500" y="1865" />
              <mxPoint x="500" y="113" />
            </Array>
          </mxGeometry>
        </mxCell>
        <mxCell id="yBYZtMUyjf2cW572dm1t-10" value="15. Какие данные &lt;br&gt;введены?" style="rhombus;whiteSpace=wrap;html=1;labelBackgroundColor=none;fillColor=#B2C9AB;strokeColor=#788AA3;fontColor=#46495D;" parent="1" vertex="1">
          <mxGeometry x="651.75" y="1820" width="147.5" height="90" as="geometry" />
        </mxCell>
        <mxCell id="yBYZtMUyjf2cW572dm1t-11" value="Показать первого партнера" style="text;html=1;align=center;verticalAlign=middle;whiteSpace=wrap;rounded=0;labelBackgroundColor=none;fontColor=#46495D;" parent="1" vertex="1">
          <mxGeometry x="799.25" y="1840" width="150" height="50" as="geometry" />
        </mxCell>
        <mxCell id="yBYZtMUyjf2cW572dm1t-14" value="Новый поиск" style="text;html=1;align=center;verticalAlign=middle;whiteSpace=wrap;rounded=0;labelBackgroundColor=none;fontColor=#46495D;" parent="1" vertex="1">
          <mxGeometry x="501.75" y="1830" width="150" height="50" as="geometry" />
        </mxCell>
        <mxCell id="yBYZtMUyjf2cW572dm1t-15" value="Закончить" style="text;html=1;align=center;verticalAlign=middle;whiteSpace=wrap;rounded=0;labelBackgroundColor=none;fontColor=#46495D;" parent="1" vertex="1">
          <mxGeometry x="695.25" y="2510" width="150" height="50" as="geometry" />
        </mxCell>
        <mxCell id="yBYZtMUyjf2cW572dm1t-18" style="edgeStyle=orthogonalEdgeStyle;rounded=0;orthogonalLoop=1;jettySize=auto;html=1;exitX=0;exitY=0.5;exitDx=0;exitDy=0;labelBackgroundColor=none;strokeColor=#1A1A1A;fontColor=default;" parent="1" source="yBYZtMUyjf2cW572dm1t-17" target="yBYZtMUyjf2cW572dm1t-19" edge="1">
          <mxGeometry relative="1" as="geometry">
            <mxPoint x="220" y="2450" as="targetPoint" />
            <Array as="points">
              <mxPoint x="180" y="2550" />
              <mxPoint x="180" y="2370" />
              <mxPoint x="290" y="2370" />
            </Array>
          </mxGeometry>
        </mxCell>
        <mxCell id="yBYZtMUyjf2cW572dm1t-17" value="19.1 Запись в таблицу&amp;nbsp;&lt;br&gt;&amp;nbsp;&lt;b&gt;VK_Partners.favorite = True&lt;/b&gt;" style="rounded=0;whiteSpace=wrap;html=1;labelBackgroundColor=none;fillColor=#B2C9AB;strokeColor=#788AA3;fontColor=#46495D;" parent="1" vertex="1">
          <mxGeometry x="200" y="2520" width="180" height="60" as="geometry" />
        </mxCell>
        <mxCell id="yBYZtMUyjf2cW572dm1t-24" style="edgeStyle=orthogonalEdgeStyle;rounded=0;orthogonalLoop=1;jettySize=auto;html=1;exitX=0.5;exitY=0;exitDx=0;exitDy=0;entryX=0;entryY=0.75;entryDx=0;entryDy=0;labelBackgroundColor=none;strokeColor=#1A1A1A;fontColor=default;" parent="1" source="yBYZtMUyjf2cW572dm1t-19" target="4498GJh0joUod8Id8tWc-61" edge="1">
          <mxGeometry relative="1" as="geometry" />
        </mxCell>
        <mxCell id="yBYZtMUyjf2cW572dm1t-19" value="19.2 Сообщение от бота о добавлении партнера(&lt;b style=&quot;border-color: var(--border-color);&quot;&gt;first_name, last_name&lt;/b&gt;)&amp;nbsp;&lt;br&gt;в избранное&amp;nbsp;" style="shape=parallelogram;perimeter=parallelogramPerimeter;whiteSpace=wrap;html=1;fixedSize=1;labelBackgroundColor=none;fillColor=#B2C9AB;strokeColor=#788AA3;fontColor=#46495D;" parent="1" vertex="1">
          <mxGeometry x="160" y="2270" width="260" height="60" as="geometry" />
        </mxCell>
        <mxCell id="yBYZtMUyjf2cW572dm1t-22" style="edgeStyle=orthogonalEdgeStyle;rounded=0;orthogonalLoop=1;jettySize=auto;html=1;exitX=0;exitY=1;exitDx=0;exitDy=0;entryX=0.5;entryY=0;entryDx=0;entryDy=0;labelBackgroundColor=none;strokeColor=#1A1A1A;fontColor=default;" parent="1" source="4498GJh0joUod8Id8tWc-67" target="yBYZtMUyjf2cW572dm1t-23" edge="1">
          <mxGeometry relative="1" as="geometry">
            <mxPoint x="380" y="2650" as="targetPoint" />
            <Array as="points">
              <mxPoint x="689" y="2540" />
              <mxPoint x="480" y="2540" />
            </Array>
          </mxGeometry>
        </mxCell>
        <mxCell id="yBYZtMUyjf2cW572dm1t-21" value="Добавить &lt;br&gt;в избранное" style="text;html=1;align=center;verticalAlign=middle;whiteSpace=wrap;rounded=0;labelBackgroundColor=none;fontColor=#46495D;" parent="1" vertex="1">
          <mxGeometry x="501.75" y="2440" width="150" height="50" as="geometry" />
        </mxCell>
        <mxCell id="yBYZtMUyjf2cW572dm1t-25" style="edgeStyle=orthogonalEdgeStyle;rounded=0;orthogonalLoop=1;jettySize=auto;html=1;exitX=0;exitY=0.5;exitDx=0;exitDy=0;labelBackgroundColor=none;strokeColor=#788AA3;fontColor=default;" parent="1" source="yBYZtMUyjf2cW572dm1t-23" target="yBYZtMUyjf2cW572dm1t-26" edge="1">
          <mxGeometry relative="1" as="geometry">
            <mxPoint x="310" y="2637" as="targetPoint" />
          </mxGeometry>
        </mxCell>
        <mxCell id="yBYZtMUyjf2cW572dm1t-23" value="19.3 Запись в таблицу &lt;b&gt;VK_Partners.ban = True&lt;br&gt;&lt;/b&gt;" style="rounded=0;whiteSpace=wrap;html=1;labelBackgroundColor=none;fillColor=#B2C9AB;strokeColor=#788AA3;fontColor=#46495D;" parent="1" vertex="1">
          <mxGeometry x="419.63" y="2607" width="120" height="60" as="geometry" />
        </mxCell>
        <mxCell id="yBYZtMUyjf2cW572dm1t-26" value="19.4 Сообщение от бота о добавлении партнера(&lt;b style=&quot;border-color: var(--border-color);&quot;&gt;first_name, last_name&lt;/b&gt;)&amp;nbsp;&lt;br style=&quot;border-color: var(--border-color);&quot;&gt;в бан&amp;nbsp;" style="shape=parallelogram;perimeter=parallelogramPerimeter;whiteSpace=wrap;html=1;fixedSize=1;labelBackgroundColor=none;fillColor=#B2C9AB;strokeColor=#788AA3;fontColor=#46495D;" parent="1" vertex="1">
          <mxGeometry x="110" y="2607" width="260" height="60" as="geometry" />
        </mxCell>
        <mxCell id="yBYZtMUyjf2cW572dm1t-28" value="Добавить &lt;br&gt;в бан" style="text;html=1;align=center;verticalAlign=middle;whiteSpace=wrap;rounded=0;labelBackgroundColor=none;fontColor=#46495D;" parent="1" vertex="1">
          <mxGeometry x="490" y="2514" width="150" height="50" as="geometry" />
        </mxCell>
        <mxCell id="yBYZtMUyjf2cW572dm1t-35" style="edgeStyle=orthogonalEdgeStyle;rounded=0;orthogonalLoop=1;jettySize=auto;html=1;exitX=0.5;exitY=1;exitDx=0;exitDy=0;labelBackgroundColor=none;strokeColor=#788AA3;fontColor=default;" parent="1" source="yBYZtMUyjf2cW572dm1t-31" target="yBYZtMUyjf2cW572dm1t-34" edge="1">
          <mxGeometry relative="1" as="geometry" />
        </mxCell>
        <mxCell id="yBYZtMUyjf2cW572dm1t-31" value="19.5 Формирование списка избранных (Выборка &lt;b&gt;first_name, last_name, link&lt;/b&gt; из таблицы &lt;b&gt;VK_partners&lt;/b&gt;)" style="rounded=0;whiteSpace=wrap;html=1;labelBackgroundColor=none;fillColor=#B2C9AB;strokeColor=#788AA3;fontColor=#46495D;" parent="1" vertex="1">
          <mxGeometry x="1060" y="2000" width="180" height="60" as="geometry" />
        </mxCell>
        <mxCell id="yBYZtMUyjf2cW572dm1t-37" value="" style="edgeStyle=orthogonalEdgeStyle;rounded=0;orthogonalLoop=1;jettySize=auto;html=1;labelBackgroundColor=none;strokeColor=#788AA3;fontColor=default;" parent="1" source="yBYZtMUyjf2cW572dm1t-34" target="yBYZtMUyjf2cW572dm1t-36" edge="1">
          <mxGeometry relative="1" as="geometry" />
        </mxCell>
        <mxCell id="yBYZtMUyjf2cW572dm1t-34" value="19.6 Вывод &lt;br&gt;списка избранных" style="shape=parallelogram;perimeter=parallelogramPerimeter;whiteSpace=wrap;html=1;fixedSize=1;labelBackgroundColor=none;fillColor=#B2C9AB;strokeColor=#788AA3;fontColor=#46495D;" parent="1" vertex="1">
          <mxGeometry x="1065" y="2120" width="170" height="40" as="geometry" />
        </mxCell>
        <mxCell id="yBYZtMUyjf2cW572dm1t-36" value="19.7 Ввод пользователя. Кнопка:&lt;br&gt;&quot;Выйти из списка избранных&quot;" style="shape=parallelogram;perimeter=parallelogramPerimeter;whiteSpace=wrap;html=1;fixedSize=1;labelBackgroundColor=none;fillColor=#B2C9AB;strokeColor=#788AA3;fontColor=#46495D;" parent="1" vertex="1">
          <mxGeometry x="1042.5" y="2240" width="215" height="90" as="geometry" />
        </mxCell>
        <mxCell id="yBYZtMUyjf2cW572dm1t-38" style="edgeStyle=orthogonalEdgeStyle;rounded=0;orthogonalLoop=1;jettySize=auto;html=1;exitX=0.5;exitY=1;exitDx=0;exitDy=0;entryX=1.002;entryY=0.192;entryDx=0;entryDy=0;entryPerimeter=0;labelBackgroundColor=none;strokeColor=#1A1A1A;fontColor=default;" parent="1" source="yBYZtMUyjf2cW572dm1t-36" target="4498GJh0joUod8Id8tWc-61" edge="1">
          <mxGeometry relative="1" as="geometry">
            <Array as="points">
              <mxPoint x="1150" y="2390" />
              <mxPoint x="1270" y="2390" />
              <mxPoint x="1270" y="1958" />
            </Array>
          </mxGeometry>
        </mxCell>
        <mxCell id="yBYZtMUyjf2cW572dm1t-39" value="Показать &lt;br&gt;избранных" style="text;html=1;align=center;verticalAlign=middle;whiteSpace=wrap;rounded=0;labelBackgroundColor=none;fontColor=#46495D;" parent="1" vertex="1">
          <mxGeometry x="790" y="2462" width="150" height="50" as="geometry" />
        </mxCell>
        <mxCell id="yBYZtMUyjf2cW572dm1t-42" value="" style="edgeStyle=orthogonalEdgeStyle;rounded=0;orthogonalLoop=1;jettySize=auto;html=1;exitX=0;exitY=0.5;exitDx=0;exitDy=0;entryX=0;entryY=0.25;entryDx=0;entryDy=0;labelBackgroundColor=none;strokeColor=#1A1A1A;fontColor=default;" parent="1" source="yBYZtMUyjf2cW572dm1t-26" target="4498GJh0joUod8Id8tWc-61" edge="1">
          <mxGeometry relative="1" as="geometry">
            <mxPoint x="120" y="2637" as="sourcePoint" />
            <mxPoint x="179.5999999999999" y="1971.48" as="targetPoint" />
            <Array as="points">
              <mxPoint x="100" y="2637" />
              <mxPoint x="100" y="1966" />
            </Array>
          </mxGeometry>
        </mxCell>
      </root>
    </mxGraphModel>
  </diagram>
</mxfile>
